  <svg
    width="52"
    height="52"
    viewBox="0 0 72 72"
    fill="none"
    xmlns="http://www.w3.org/2000/svg"
  >
    <rect width="72" height="72" rx="36" fill="#FCC43E" />
    <path
      d="M46 24.75H43.5V23.5C43.5 23.1685 43.3683 22.8505 43.1339 22.6161C42.8995 22.3817 42.5815 22.25 42.25 22.25C41.9185 22.25 41.6005 22.3817 41.3661 22.6161C41.1317 22.8505 41 23.1685 41 23.5V24.75H37.25V23.5C37.25 23.1685 37.1183 22.8505 36.8839 22.6161C36.6495 22.3817 36.3315 22.25 36 22.25C35.6685 22.25 35.3505 22.3817 35.1161 22.6161C34.8817 22.8505 34.75 23.1685 34.75 23.5V24.75H31V23.5C31 23.1685 30.8683 22.8505 30.6339 22.6161C30.3995 22.3817 30.0815 22.25 29.75 22.25C29.4185 22.25 29.1005 22.3817 28.8661 22.6161C28.6317 22.8505 28.5 23.1685 28.5 23.5V24.75H26C25.0054 24.75 24.0516 25.1451 23.3483 25.8483C22.6451 26.5516 22.25 27.5054 22.25 28.5V46C22.25 46.9946 22.6451 47.9484 23.3483 48.6517C24.0516 49.3549 25.0054 49.75 26 49.75H46C46.9946 49.75 47.9484 49.3549 48.6517 48.6517C49.3549 47.9484 49.75 46.9946 49.75 46V28.5C49.75 27.5054 49.3549 26.5516 48.6517 25.8483C47.9484 25.1451 46.9946 24.75 46 24.75ZM24.75 28.5C24.75 28.1685 24.8817 27.8505 25.1161 27.6161C25.3505 27.3817 25.6685 27.25 26 27.25H28.5V28.5C28.5 28.8315 28.6317 29.1495 28.8661 29.3839C29.1005 29.6183 29.4185 29.75 29.75 29.75C30.0815 29.75 30.3995 29.6183 30.6339 29.3839C30.8683 29.1495 31 28.8315 31 28.5V27.25H34.75V28.5C34.75 28.8315 34.8817 29.1495 35.1161 29.3839C35.3505 29.6183 35.6685 29.75 36 29.75C36.3315 29.75 36.6495 29.6183 36.8839 29.3839C37.1183 29.1495 37.25 28.8315 37.25 28.5V27.25H41V28.5C41 28.8315 41.1317 29.1495 41.3661 29.3839C41.6005 29.6183 41.9185 29.75 42.25 29.75C42.5815 29.75 42.8995 29.6183 43.1339 29.3839C43.3683 29.1495 43.5 28.8315 43.5 28.5V27.25H46C46.3315 27.25 46.6495 27.3817 46.8839 27.6161C47.1183 27.8505 47.25 28.1685 47.25 28.5V32.25H24.75V28.5ZM47.25 46C47.25 46.3315 47.1183 46.6495 46.8839 46.8839C46.6495 47.1183 46.3315 47.25 46 47.25H26C25.6685 47.25 25.3505 47.1183 25.1161 46.8839C24.8817 46.6495 24.75 46.3315 24.75 46V34.75H47.25V46Z"
      fill="white"
    />
  </svg>
