<svg
  width="52"
  height="52"
  viewBox="0 0 72 72"
  fill="none"
  xmlns="http://www.w3.org/2000/svg"
>
  <rect width="72" height="72" rx="36" fill="#EE86B8" />
  <g clip-path="url(#clip0_2_483)">
    <path
      fill-rule="evenodd"
      clip-rule="evenodd"
      d="M33.9288 54.75H24.75C22.6788 54.75 21 53.0713 21 51V40.5863C21 38.7738 22.2962 37.2213 24.0787 36.8975C26.7212 36.4163 31.2775 35.5875 33.855 35.12C35.2737 34.8612 36.7263 34.8612 38.145 35.12C40.7225 35.5875 45.2788 36.4163 47.9213 36.8975C49.7038 37.2213 51 38.7738 51 40.5863C51 43.3125 51 48.0825 51 51C51 53.0713 49.3212 54.75 47.25 54.75H33.9288ZM45.785 39.05L45.79 39.0563C46.0088 39.3838 46.06 39.795 45.9287 40.1662L45.0462 42.6662C44.9312 42.9925 44.685 43.2575 44.3675 43.3963L42.7075 44.12L43.3675 45.4412C43.5525 45.81 43.5425 46.2462 43.3425 46.6075L40.2075 52.25H47.25C47.94 52.25 48.5 51.69 48.5 51C48.5 48.0825 48.5 43.3125 48.5 40.5863C48.5 39.9825 48.0675 39.465 47.4738 39.3562L45.785 39.05ZM42.3663 38.4275L37.6975 37.5788C36.575 37.375 35.425 37.375 34.3025 37.5788L29.6337 38.4275L28.6363 39.9238L29.13 41.3213L31.5 42.3537C31.8138 42.4912 32.0575 42.7512 32.175 43.0737C32.2925 43.3962 32.2712 43.7525 32.1175 44.0588L31.1625 45.9688L34.6525 52.25H37.3475L40.8375 45.9688L39.8825 44.0588C39.7288 43.7525 39.7075 43.3962 39.825 43.0737C39.9425 42.7512 40.1862 42.4912 40.5 42.3537L42.87 41.3213L43.3638 39.9238L42.3663 38.4275ZM26.215 39.05L24.5262 39.3562C23.9325 39.465 23.5 39.9825 23.5 40.5863V51C23.5 51.69 24.06 52.25 24.75 52.25H31.7925L28.6575 46.6075C28.4575 46.2462 28.4475 45.81 28.6325 45.4412L29.2925 44.12L27.6325 43.3963C27.315 43.2575 27.0688 42.9925 26.9538 42.6662L26.0712 40.1662C25.94 39.795 25.9912 39.3838 26.21 39.0563L26.215 39.05ZM44.75 46V48.5C44.75 49.19 45.31 49.75 46 49.75C46.69 49.75 47.25 49.19 47.25 48.5V46C47.25 45.31 46.69 44.75 46 44.75C45.31 44.75 44.75 45.31 44.75 46ZM36 17.25C31.5163 17.25 27.875 20.8913 27.875 25.375C27.875 29.8587 31.5163 33.5 36 33.5C40.4837 33.5 44.125 29.8587 44.125 25.375C44.125 20.8913 40.4837 17.25 36 17.25ZM36 19.75C39.105 19.75 41.625 22.27 41.625 25.375C41.625 28.48 39.105 31 36 31C32.895 31 30.375 28.48 30.375 25.375C30.375 22.27 32.895 19.75 36 19.75Z"
      fill="white"
    />
  </g>
  <defs>
    <clipPath id="clip0_2_483">
      <rect
        width="40"
        height="40"
        fill="white"
        transform="translate(16 16)"
      />
    </clipPath>
  </defs>
</svg>