<svg
width="52"
height="52"
viewBox="0 0 72 72"
fill="none"
xmlns="http://www.w3.org/2000/svg"
>
<rect width="72" height="72" rx="36" fill="#FB7D5B" />
<g clip-path="url(#clip0_2_491)">
<path
fill-rule="evenodd"
clip-rule="evenodd"
d="M21 51C21 53.0713 22.6788 54.75 24.75 54.75H47.25C49.3212 54.75 51 53.0713 51 51C51 48.0825 51 43.3125 51 40.5863C51 38.7738 49.7038 37.2213 47.9213 36.8975C45.2788 36.4163 40.7225 35.5875 38.145 35.12C36.7263 34.8612 35.2737 34.8612 33.855 35.12C31.2775 35.5875 26.7212 36.4163 24.0787 36.8975C22.2962 37.2213 21 38.7738 21 40.5863V51ZM38.885 37.795L40.7612 44.9288C41.0075 45.865 40.6775 46.8588 39.92 47.4638C39.28 47.9738 38.2713 48.7788 37.5713 49.3388C36.6525 50.0713 35.3475 50.0713 34.4287 49.3388C33.7287 48.7788 32.72 47.9738 32.08 47.4638C31.3225 46.8588 30.9925 45.865 31.2388 44.9288L33.115 37.795L24.5262 39.3562C23.9325 39.465 23.5 39.9825 23.5 40.5863V51C23.5 51.69 24.06 52.25 24.75 52.25C29.98 52.25 42.02 52.25 47.25 52.25C47.94 52.25 48.5 51.69 48.5 51C48.5 48.0825 48.5 43.3125 48.5 40.5863C48.5 39.9825 48.0675 39.465 47.4738 39.3562L38.885 37.795ZM36.2038 37.4288C36.0675 37.425 35.9325 37.425 35.7962 37.4288L33.6663 45.5312L35.9887 47.3837C35.995 47.39 36.005 47.39 36.0113 47.3837L38.3337 45.5312L36.2038 37.4288ZM36 17.25C31.5163 17.25 27.875 20.8913 27.875 25.375C27.875 29.8587 31.5163 33.5 36 33.5C40.4837 33.5 44.125 29.8587 44.125 25.375C44.125 20.8913 40.4837 17.25 36 17.25ZM36 19.75C39.105 19.75 41.625 22.27 41.625 25.375C41.625 28.48 39.105 31 36 31C32.895 31 30.375 28.48 30.375 25.375C30.375 22.27 32.895 19.75 36 19.75Z"
fill="white"
/>
</g>
<defs>
<clipPath id="clip0_2_491">
<rect
width="40"
height="40"
fill="white"
transform="translate(16 16)"
/>
</clipPath>
</defs>
</svg>
