<svg version="1.0" xmlns="http://www.w3.org/2000/svg"
 width="128.000000pt" height="128.000000pt" viewBox="0 0 128.000000 128.000000"
 preserveAspectRatio="xMidYMid meet">

<g transform="translate(0.000000,128.000000) scale(0.100000,-0.100000)"
fill="#000000" stroke="none">
<path d="M498 1103 c-8 -10 -48 -107 -88 -215 l-73 -198 -102 0 c-109 0 -125
-6 -125 -50 0 -45 14 -50 155 -50 113 0 134 2 147 18 8 9 34 69 57 131 23 63
45 121 49 128 4 7 45 -139 91 -325 46 -185 90 -347 97 -360 17 -26 55 -29 76
-4 9 9 46 98 82 196 37 99 72 188 77 198 8 15 23 18 107 18 106 0 122 7 122
50 0 45 -14 50 -157 50 -156 0 -141 11 -199 -145 -20 -55 -41 -111 -47 -125
-8 -21 -24 32 -98 325 -62 249 -93 353 -105 362 -25 18 -48 16 -66 -4z"/>
</g>
</svg>
