<svg version="1.0" xmlns="http://www.w3.org/2000/svg"
 width="437.000000pt" height="26.000000pt" viewBox="0 0 437.000000 26.000000"
 preserveAspectRatio="xMidYMid meet">

<g transform="translate(0.000000,26.000000) scale(0.100000,-0.100000)"
fill="#000000" stroke="none">
<path d="M970 240 c0 -5 5 -10 10 -10 6 0 10 5 10 10 0 6 -4 10 -10 10 -5 0
-10 -4 -10 -10z"/>
<path d="M1188 244 c-12 -11 -10 -174 2 -174 6 0 10 20 10 44 0 27 6 51 16 60
35 36 64 10 64 -56 0 -26 5 -48 10 -48 6 0 10 24 10 54 0 64 -15 81 -65 73
-32 -5 -34 -4 -37 25 -2 16 -6 26 -10 22z"/>
<path d="M1503 224 c-14 -14 -22 -28 -19 -32 4 -3 14 4 22 17 23 32 58 25 62
-13 3 -23 -6 -38 -44 -77 l-48 -49 62 0 c40 0 61 4 57 10 -3 6 -23 10 -43 10
-36 1 -37 1 -17 18 56 47 70 100 33 126 -30 21 -35 20 -65 -10z"/>
<path d="M1798 236 c-12 -6 -24 -19 -26 -29 -5 -24 15 -21 21 3 6 22 36 27 55
8 22 -22 12 -51 -33 -95 -25 -23 -45 -45 -45 -48 0 -3 25 -5 55 -5 30 0 55 5
55 10 0 6 -16 10 -36 10 l-36 0 30 34 c37 42 46 69 33 94 -13 25 -43 33 -73
18z"/>
<path d="M1932 234 c-12 -8 -22 -20 -22 -26 0 -6 8 -4 18 5 23 21 46 22 62 2
10 -12 10 -18 0 -30 -7 -8 -19 -15 -26 -15 -8 0 -14 -4 -14 -10 0 -5 9 -10 20
-10 25 0 37 -27 23 -49 -16 -25 -39 -24 -62 0 -25 28 -36 21 -15 -9 18 -26 65
-29 88 -6 21 20 20 38 -1 60 -13 13 -14 19 -5 22 6 2 12 17 12 33 0 22 -6 32
-26 39 -31 12 -25 13 -52 -6z"/>
<path d="M2448 244 c-12 -11 -10 -174 1 -174 6 0 11 23 13 51 6 96 70 96 76 0
2 -28 7 -51 13 -51 12 0 12 86 -1 111 -12 22 -64 26 -77 7 -5 -8 -10 1 -13 25
-3 22 -8 35 -12 31z"/>
<path d="M2907 243 c-11 -11 -8 -173 3 -173 6 0 10 37 10 90 0 90 -1 96 -13
83z"/>
<path d="M3150 240 c0 -5 5 -10 10 -10 6 0 10 5 10 10 0 6 -4 10 -10 10 -5 0
-10 -4 -10 -10z"/>
<path d="M3207 243 c-11 -11 -8 -173 3 -173 6 0 10 37 10 90 0 90 -1 96 -13
83z"/>
<path d="M3260 160 c0 -53 4 -90 10 -90 6 0 10 37 10 90 0 53 -4 90 -10 90 -6
0 -10 -37 -10 -90z"/>
<path d="M4300 213 c0 -29 -3 -34 -12 -25 -19 19 -66 14 -89 -9 -24 -24 -20
-75 8 -96 21 -16 69 -17 79 -2 4 8 9 7 15 -2 5 -9 9 23 9 79 0 50 -2 92 -5 92
-3 0 -5 -17 -5 -37z m-16 -45 c21 -30 20 -44 -4 -68 -24 -24 -43 -25 -64 -4
-21 20 -20 53 1 76 22 24 49 23 67 -4z"/>
<path d="M269 211 c-32 -33 -36 -58 -14 -100 16 -32 33 -41 75 -41 29 0 80 33
68 45 -4 4 -19 -2 -35 -14 -30 -25 -68 -21 -90 7 -18 25 -16 76 5 95 23 21 75
22 92 2 7 -8 18 -15 24 -15 6 0 -2 12 -17 25 -37 33 -72 32 -108 -4z"/>
<path d="M1640 225 c-18 -22 -23 -96 -8 -125 11 -19 21 -25 48 -25 27 0 37 6
47 25 17 34 16 91 -3 118 -18 26 -65 30 -84 7z m68 -7 c13 -13 16 -85 6 -112
-8 -21 -60 -21 -68 0 -10 27 -7 99 6 112 7 7 19 12 28 12 9 0 21 -5 28 -12z"/>
<path d="M2166 218 c-13 -19 -14 -25 -2 -43 7 -11 27 -24 44 -29 35 -10 48
-32 31 -52 -15 -19 -38 -18 -61 3 -23 21 -35 11 -13 -11 19 -19 66 -21 83 -4
7 7 12 23 12 35 0 19 -10 28 -46 43 -33 14 -45 25 -42 37 4 22 44 29 64 12 8
-6 18 -9 22 -5 10 11 -28 36 -54 36 -13 0 -30 -10 -38 -22z"/>
<path d="M3020 230 c0 -5 18 -10 40 -10 l41 0 -34 -53 c-66 -102 -66 -97 -2
-97 63 0 75 17 16 22 l-39 3 39 65 c21 36 39 68 39 73 0 4 -22 7 -50 7 -27 0
-50 -4 -50 -10z"/>
<path d="M3540 155 c0 -50 4 -85 10 -85 6 0 10 16 10 35 0 32 2 35 29 35 33 0
61 23 61 49 0 28 -33 51 -73 51 l-37 0 0 -85z m85 35 c0 -21 -5 -26 -32 -28
-31 -3 -33 -1 -33 28 0 29 2 31 33 28 27 -2 32 -7 32 -28z"/>
<path d="M4008 234 c-5 -4 -8 -43 -8 -86 l0 -78 43 2 c36 1 37 2 10 5 l-32 4
-3 80 c-2 45 -6 77 -10 73z"/>
<path d="M1340 216 c0 -8 -6 -17 -12 -19 -10 -4 -10 -6 0 -6 8 -1 12 -18 12
-48 0 -59 10 -76 41 -70 l24 4 -22 8 c-20 6 -23 14 -23 55 0 42 3 49 23 53
l22 4 -22 2 c-13 0 -23 8 -23 16 0 8 -4 15 -10 15 -5 0 -10 -6 -10 -14z"/>
<path d="M3809 213 c-5 -103 11 -150 47 -140 17 4 17 6 -3 12 -20 6 -23 14
-23 55 0 42 3 49 23 53 l22 4 -22 2 c-13 0 -23 8 -23 16 0 21 -20 19 -21 -2z"/>
<path d="M4110 215 c0 -8 -6 -15 -12 -15 -10 0 -10 -2 -1 -8 6 -4 13 -32 15
-62 3 -48 6 -55 26 -58 12 -2 22 1 22 7 0 6 -7 11 -15 11 -23 0 -21 97 3 103
16 4 16 5 0 6 -10 0 -18 8 -18 16 0 8 -4 15 -10 15 -5 0 -10 -7 -10 -15z"/>
<path d="M44 186 c-27 -27 -34 -42 -34 -73 0 -21 7 -48 15 -60 18 -26 63 -37
96 -24 21 8 18 10 -23 10 -39 1 -50 5 -64 26 -38 58 22 149 94 143 49 -4 79
-44 66 -90 -15 -50 -40 -43 -36 10 2 23 0 42 -5 41 -4 -1 -16 1 -25 5 -36 16
-76 -31 -66 -81 4 -22 43 -29 64 -13 10 9 14 9 14 1 0 -16 36 -13 54 5 9 8 16
32 16 53 0 52 -32 81 -89 81 -36 0 -49 -6 -77 -34z m91 -60 c0 -39 -28 -57
-52 -34 -14 14 -15 22 -5 43 17 38 57 31 57 -9z"/>
<path d="M447 182 c-22 -25 -21 -75 1 -95 41 -37 112 -6 112 48 0 55 -77 87
-113 47z m77 -8 c30 -29 10 -94 -28 -94 -25 0 -48 27 -48 55 0 46 46 70 76 39z"/>
<path d="M590 105 c0 -57 4 -95 10 -95 6 0 10 15 10 34 0 34 0 34 39 29 32 -4
41 -2 55 18 21 31 20 72 -2 92 -22 20 -63 22 -80 5 -9 -9 -12 -9 -12 0 0 7 -4
12 -10 12 -6 0 -10 -38 -10 -95z m94 69 c25 -24 20 -72 -8 -85 -37 -17 -66 3
-66 46 0 49 42 71 74 39z"/>
<path d="M740 195 c0 -3 11 -33 25 -66 18 -45 22 -66 15 -79 -13 -24 -13 -47
-1 -34 15 15 80 184 72 184 -5 0 -18 -24 -31 -52 l-22 -53 -18 40 c-10 22 -19
46 -19 53 -1 11 -21 18 -21 7z"/>
<path d="M880 133 c0 -35 4 -63 10 -63 6 0 10 22 10 49 0 39 4 52 23 64 22 15
22 15 -10 15 l-33 -1 0 -64z"/>
<path d="M970 135 c0 -37 4 -65 10 -65 6 0 10 28 10 65 0 37 -4 65 -10 65 -6
0 -10 -28 -10 -65z"/>
<path d="M1036 184 c-21 -20 -21 -78 0 -98 18 -19 65 -21 82 -4 9 9 12 6 12
-13 0 -14 -5 -30 -12 -37 -17 -17 -53 -15 -68 3 -7 8 -17 15 -23 15 -5 0 -2
-9 8 -20 25 -28 79 -27 99 2 18 26 23 168 6 168 -5 0 -10 -5 -10 -12 0 -9 -3
-9 -12 0 -17 17 -64 15 -82 -4z m76 -11 c24 -21 23 -55 -2 -78 -42 -38 -98 21
-66 70 19 29 42 32 68 8z"/>
<path d="M2307 182 c-38 -42 -10 -112 44 -112 28 0 68 25 57 35 -4 4 -14 0
-23 -9 -9 -9 -21 -16 -26 -16 -52 0 -70 81 -24 102 21 9 28 8 45 -7 23 -21 39
-13 20 10 -17 21 -73 19 -93 -3z"/>
<path d="M2607 182 c-22 -25 -21 -75 1 -95 43 -39 112 -8 112 50 0 53 -78 84
-113 45z m77 -8 c29 -28 11 -94 -25 -94 -65 0 -66 108 -2 110 6 0 19 -7 27
-16z"/>
<path d="M2760 180 c-41 -41 -10 -110 48 -110 36 0 62 28 62 67 0 57 -69 84
-110 43z m71 0 c13 -7 19 -21 19 -45 0 -49 -42 -71 -74 -39 -29 28 -11 94 25
94 6 0 19 -5 30 -10z"/>
<path d="M3150 135 c0 -37 4 -65 10 -65 6 0 10 28 10 65 0 37 -4 65 -10 65 -6
0 -10 -28 -10 -65z"/>
<path d="M3327 182 c-22 -25 -21 -75 1 -95 21 -19 67 -23 77 -7 4 7 -2 9 -18
5 -28 -7 -67 22 -67 50 0 19 35 55 53 55 25 0 50 -38 44 -67 -6 -30 0 -53 14
-53 5 0 9 29 9 65 0 37 -4 65 -10 65 -5 0 -10 -5 -10 -12 0 -9 -3 -9 -12 0
-18 18 -63 14 -81 -6z"/>
<path d="M3687 136 c15 -36 31 -66 37 -66 13 0 61 118 52 127 -3 3 -13 -11
-21 -33 -9 -21 -19 -48 -23 -58 -7 -15 -12 -9 -28 34 -12 30 -26 56 -32 58 -6
2 1 -26 15 -62z"/>
<path d="M2045 86 c-3 -9 -7 -23 -10 -31 -2 -8 -1 -15 4 -15 10 0 25 50 17 58
-3 2 -8 -3 -11 -12z"/>
<path d="M3890 80 c0 -5 5 -10 10 -10 6 0 10 5 10 10 0 6 -4 10 -10 10 -5 0
-10 -4 -10 -10z"/>
<path d="M4345 80 c3 -5 10 -10 16 -10 5 0 9 5 9 10 0 6 -7 10 -16 10 -8 0
-12 -4 -9 -10z"/>
</g>
</svg>
