<svg version="1.0" xmlns="http://www.w3.org/2000/svg"
 width="512.000000pt" height="512.000000pt" viewBox="0 0 512.000000 512.000000"
 preserveAspectRatio="xMidYMid meet">

<g transform="translate(0.000000,512.000000) scale(0.100000,-0.100000)"
fill="black" stroke="none">
<path d="M462 4704 c-98 -26 -196 -101 -248 -189 -56 -97 -55 -44 -52 -1501
l3 -1339 22 -55 c43 -105 142 -201 245 -237 51 -17 141 -18 2128 -18 1972 0
2078 1 2127 18 108 38 205 134 250 247 17 42 18 125 18 1405 0 1293 -1 1363
-18 1413 -36 103 -132 202 -237 245 l-55 22 -2065 2 c-1768 2 -2073 0 -2118
-13z m4203 -171 c47 -25 85 -64 111 -113 18 -34 19 -87 19 -1380 0 -1293 -1
-1346 -19 -1380 -26 -49 -64 -88 -111 -113 l-40 -22 -2065 0 c-1996 0 -2066 1
-2100 19 -49 26 -88 64 -113 111 l-22 40 0 1345 c0 1293 1 1346 19 1380 35 66
87 110 156 131 14 4 948 7 2075 6 l2050 -2 40 -22z"/>
<path d="M2332 4110 c-208 -45 -393 -148 -548 -304 -161 -162 -253 -336 -299
-565 -26 -124 -17 -363 18 -486 115 -408 440 -709 856 -792 109 -21 313 -19
426 5 431 92 766 435 851 871 19 98 19 304 0 402 -81 418 -389 747 -803 859
-118 32 -374 37 -501 10z m491 -174 c291 -87 521 -305 619 -586 66 -192 66
-428 0 -620 -77 -221 -240 -410 -447 -517 -556 -287 -1220 28 -1350 640 -31
141 -16 356 33 497 105 303 367 532 688 604 50 11 110 15 219 12 127 -3 164
-8 238 -30z"/>
<path d="M2156 3599 l-26 -20 0 -538 0 -538 23 -21 c47 -45 59 -38 437 229
195 138 365 260 378 272 15 14 22 32 22 57 0 25 -7 43 -22 57 -13 11 -183 133
-379 272 -235 165 -365 251 -381 251 -14 0 -37 -9 -52 -21z m387 -394 c124
-88 225 -163 224 -167 -2 -5 -383 -279 -454 -326 l-23 -14 0 341 c0 284 2 341
13 334 8 -4 116 -80 240 -168z"/>
<path d="M2403 1081 c-126 -47 -221 -145 -262 -273 l-13 -38 -954 0 c-819 0
-959 -2 -983 -15 -46 -24 -55 -74 -20 -119 l20 -26 969 0 968 0 13 -37 c66
-207 261 -331 465 -296 86 15 163 53 223 112 47 46 101 137 115 194 l6 27 968
0 969 0 21 23 c22 23 28 60 16 92 -18 46 -4 45 -1018 45 l-954 0 -16 46 c-37
109 -118 199 -224 250 -76 37 -228 44 -309 15z m252 -145 c182 -86 214 -343
57 -463 -148 -112 -357 -57 -428 112 -37 89 -10 221 59 293 79 82 210 107 312
58z"/>
</g>
</svg>
