<svg width="40" height="41" viewBox="0 0 40 41" fill="none" xmlns="http://www.w3.org/2000/svg">
<path d="M30 9.46283H27.5V8.21283C27.5 7.88131 27.3683 7.56337 27.1339 7.32895C26.8995 7.09453 26.5815 6.96283 26.25 6.96283C25.9185 6.96283 25.6005 7.09453 25.3661 7.32895C25.1317 7.56337 25 7.88131 25 8.21283V9.46283H21.25V8.21283C21.25 7.88131 21.1183 7.56337 20.8839 7.32895C20.6495 7.09453 20.3315 6.96283 20 6.96283C19.6685 6.96283 19.3505 7.09453 19.1161 7.32895C18.8817 7.56337 18.75 7.88131 18.75 8.21283V9.46283H15V8.21283C15 7.88131 14.8683 7.56337 14.6339 7.32895C14.3995 7.09453 14.0815 6.96283 13.75 6.96283C13.4185 6.96283 13.1005 7.09453 12.8661 7.32895C12.6317 7.56337 12.5 7.88131 12.5 8.21283V9.46283H10C9.00544 9.46283 8.05161 9.85792 7.34835 10.5612C6.64509 11.2644 6.25 12.2183 6.25 13.2128V30.7128C6.25 31.7074 6.64509 32.6612 7.34835 33.3645C8.05161 34.0677 9.00544 34.4628 10 34.4628H30C30.9946 34.4628 31.9484 34.0677 32.6517 33.3645C33.3549 32.6612 33.75 31.7074 33.75 30.7128V13.2128C33.75 12.2183 33.3549 11.2644 32.6517 10.5612C31.9484 9.85792 30.9946 9.46283 30 9.46283ZM8.75 13.2128C8.75 12.8813 8.8817 12.5634 9.11612 12.3289C9.35054 12.0945 9.66848 11.9628 10 11.9628H12.5V13.2128C12.5 13.5444 12.6317 13.8623 12.8661 14.0967C13.1005 14.3311 13.4185 14.4628 13.75 14.4628C14.0815 14.4628 14.3995 14.3311 14.6339 14.0967C14.8683 13.8623 15 13.5444 15 13.2128V11.9628H18.75V13.2128C18.75 13.5444 18.8817 13.8623 19.1161 14.0967C19.3505 14.3311 19.6685 14.4628 20 14.4628C20.3315 14.4628 20.6495 14.3311 20.8839 14.0967C21.1183 13.8623 21.25 13.5444 21.25 13.2128V11.9628H25V13.2128C25 13.5444 25.1317 13.8623 25.3661 14.0967C25.6005 14.3311 25.9185 14.4628 26.25 14.4628C26.5815 14.4628 26.8995 14.3311 27.1339 14.0967C27.3683 13.8623 27.5 13.5444 27.5 13.2128V11.9628H30C30.3315 11.9628 30.6495 12.0945 30.8839 12.3289C31.1183 12.5634 31.25 12.8813 31.25 13.2128V16.9628H8.75V13.2128ZM31.25 30.7128C31.25 31.0443 31.1183 31.3623 30.8839 31.5967C30.6495 31.8311 30.3315 31.9628 30 31.9628H10C9.66848 31.9628 9.35054 31.8311 9.11612 31.5967C8.8817 31.3623 8.75 31.0443 8.75 30.7128V19.4628H31.25V30.7128Z" fill="black"/>
</svg>
