<svg version="1.0" xmlns="http://www.w3.org/2000/svg"
 width="981.000000pt" height="946.000000pt" viewBox="0 0 981.000000 946.000000"
 preserveAspectRatio="xMidYMid meet">

<g transform="translate(0.000000,946.000000) scale(0.100000,-0.100000)"
fill="#FFFFFF" stroke="none">
<path d="M4610 9444 c-85 -18 -191 -71 -263 -131 -31 -26 -870 -910 -1863
-1963 -993 -1053 -1947 -2057 -2119 -2230 -172 -173 -321 -331 -331 -350 -14
-28 -18 -61 -18 -165 -1 -123 0 -133 26 -182 34 -63 97 -126 155 -154 102 -49
122 -51 595 -56 l447 -5 4 -1737 c3 -1793 3 -1800 43 -1981 38 -173 171 -339
336 -419 148 -72 139 -71 1039 -71 900 0 890 -1 1038 72 65 31 102 58 161 117
82 81 124 147 162 251 l23 65 5 1586 5 1586 30 48 c22 36 45 57 84 77 l53 28
682 0 c453 0 694 -4 720 -11 22 -6 56 -29 82 -54 l44 -44 0 -1478 c0 -1470 1
-1541 35 -1726 41 -229 212 -416 445 -489 l75 -23 860 0 c806 0 864 1 919 18
226 70 384 228 453 452 17 57 18 137 17 1830 0 1731 -3 1925 -32 1996 -32 79
-129 136 -215 126 -69 -9 -131 -48 -164 -105 l-28 -47 -5 -1765 c-6 -1949 0
-1788 -67 -1852 -63 -60 -28 -58 -900 -58 -790 0 -797 0 -840 21 -24 12 -56
36 -71 55 l-27 34 -6 1507 c-4 1079 -9 1536 -18 1607 -21 175 -77 299 -186
410 -73 75 -154 125 -260 163 l-80 28 -760 0 c-850 0 -802 4 -950 -73 -102
-53 -221 -174 -268 -272 -77 -159 -71 -13 -77 -1770 -5 -1477 -6 -1578 -22
-1602 -27 -41 -59 -68 -103 -89 -38 -18 -82 -19 -833 -19 -867 0 -832 -2 -895
58 -61 58 -57 -78 -57 1844 0 1008 -4 1812 -10 1876 -11 132 -34 184 -102 230
l-42 27 -508 5 -509 5 153 163 c84 90 1039 1042 2121 2115 1443 1431 1982
1959 2019 1980 29 15 66 27 87 27 35 0 120 -84 2316 -2279 l2280 -2279 55 -11
c103 -21 204 33 245 131 24 59 14 237 -17 288 -13 21 -909 917 -1993 1991
-2722 2697 -2479 2459 -2555 2498 -36 19 -86 49 -112 68 -141 102 -338 144
-508 107z"/>
</g>
</svg>
