<svg width="17" height="21" viewBox="0 0 17 21" fill="none" xmlns="http://www.w3.org/2000/svg">
<path d="M8.78209 0.384277C6.66036 0.384277 4.62553 1.22713 3.12524 2.72742C1.62494 4.22771 0.782089 6.26255 0.782089 8.38428C0.782089 13.7843 7.83209 19.8843 8.13209 20.1443C8.31322 20.2992 8.54374 20.3843 8.78209 20.3843C9.02044 20.3843 9.25096 20.2992 9.43209 20.1443C9.78209 19.8843 16.7821 13.7843 16.7821 8.38428C16.7821 6.26255 15.9392 4.22771 14.4389 2.72742C12.9387 1.22713 10.9038 0.384277 8.78209 0.384277ZM8.78209 18.0343C6.65209 16.0343 2.78209 11.7243 2.78209 8.38428C2.78209 6.79298 3.41423 5.26686 4.53945 4.14164C5.66467 3.01642 7.19079 2.38428 8.78209 2.38428C10.3734 2.38428 11.8995 3.01642 13.0247 4.14164C14.1499 5.26686 14.7821 6.79298 14.7821 8.38428C14.7821 11.7243 10.9121 16.0443 8.78209 18.0343ZM8.78209 4.38428C7.99096 4.38428 7.21761 4.61887 6.55981 5.0584C5.90201 5.49792 5.38932 6.12264 5.08657 6.85354C4.78382 7.58445 4.70461 8.38871 4.85895 9.16464C5.01329 9.94056 5.39425 10.6533 5.95366 11.2127C6.51307 11.7721 7.2258 12.1531 8.00173 12.3074C8.77765 12.4618 9.58192 12.3825 10.3128 12.0798C11.0437 11.777 11.6684 11.2644 12.108 10.6066C12.5475 9.94876 12.7821 9.1754 12.7821 8.38428C12.7821 7.32341 12.3607 6.306 11.6105 5.55585C10.8604 4.8057 9.84296 4.38428 8.78209 4.38428ZM8.78209 10.3843C8.38653 10.3843 7.99985 10.267 7.67095 10.0472C7.34205 9.82745 7.08571 9.5151 6.93433 9.14964C6.78295 8.78419 6.74335 8.38206 6.82052 7.9941C6.89769 7.60613 7.08817 7.24977 7.36788 6.97006C7.64758 6.69036 8.00395 6.49988 8.39191 6.42271C8.77987 6.34554 9.182 6.38514 9.54746 6.53652C9.91291 6.68789 10.2253 6.94424 10.445 7.27314C10.6648 7.60204 10.7821 7.98871 10.7821 8.38428C10.7821 8.91471 10.5714 9.42342 10.1963 9.79849C9.82123 10.1736 9.31252 10.3843 8.78209 10.3843Z" fill="#A098AE"/>
</svg>
