<svg width="21" height="20" viewBox="0 0 21 20" fill="none" xmlns="http://www.w3.org/2000/svg">
<path d="M18.4401 11C18.2201 11 17.9901 10.93 17.7701 10.88C17.3246 10.7818 16.8868 10.6515 16.4601 10.49C15.9962 10.3212 15.4862 10.33 15.0284 10.5146C14.5706 10.6992 14.1972 11.0466 13.9801 11.49L13.7601 11.94C12.7861 11.3982 11.8911 10.7252 11.1001 9.94001C10.3149 9.14902 9.64192 8.254 9.1001 7.28L9.5201 7.00001C9.96347 6.78292 10.3109 6.40954 10.4955 5.9517C10.6801 5.49386 10.6889 4.98392 10.5201 4.52001C10.3613 4.09243 10.231 3.6548 10.1301 3.21001C10.0801 2.99001 10.0401 2.76001 10.0101 2.53001C9.88867 1.82563 9.51973 1.18775 8.96972 0.731245C8.41972 0.274742 7.7248 0.0296143 7.0101 0.0400054H4.0101C3.57913 0.0359589 3.15235 0.124819 2.75881 0.300536C2.36527 0.476253 2.01421 0.734701 1.72953 1.05829C1.44485 1.38187 1.23324 1.763 1.10909 2.17572C0.984942 2.58844 0.95118 3.02306 1.0101 3.45001C1.54284 7.63939 3.45613 11.5319 6.44775 14.5126C9.43938 17.4934 13.3388 19.3925 17.5301 19.91H17.9101C18.6475 19.9111 19.3595 19.6405 19.9101 19.15C20.2265 18.867 20.4792 18.5202 20.6516 18.1323C20.8239 17.7445 20.9121 17.3244 20.9101 16.9V13.9C20.8979 13.2054 20.6449 12.5366 20.1944 12.0077C19.744 11.4788 19.1239 11.1226 18.4401 11ZM18.9401 17C18.9399 17.142 18.9095 17.2823 18.8509 17.4116C18.7923 17.5409 18.7068 17.6563 18.6001 17.75C18.4884 17.8465 18.3577 17.9185 18.2165 17.9616C18.0753 18.0046 17.9267 18.0177 17.7801 18C14.035 17.5198 10.5563 15.8065 7.89282 13.1303C5.2293 10.4541 3.53251 6.96734 3.0701 3.22001C3.05419 3.07352 3.06813 2.92534 3.1111 2.7844C3.15407 2.64346 3.22517 2.51269 3.3201 2.40001C3.41381 2.29334 3.52916 2.20785 3.65848 2.14922C3.7878 2.0906 3.92812 2.06019 4.0701 2.06001H7.0701C7.30265 2.05483 7.52972 2.13088 7.71224 2.27508C7.89477 2.41927 8.02131 2.62258 8.0701 2.85001C8.1101 3.12334 8.1601 3.39334 8.2201 3.66001C8.33562 4.18715 8.48936 4.70518 8.6801 5.21001L7.2801 5.86001C7.1604 5.91493 7.05272 5.99295 6.96326 6.0896C6.87379 6.18625 6.8043 6.29962 6.75877 6.4232C6.71324 6.54678 6.69257 6.67814 6.69795 6.80973C6.70332 6.94132 6.73464 7.07055 6.7901 7.19C8.2293 10.2728 10.7073 12.7508 13.7901 14.19C14.0336 14.29 14.3066 14.29 14.5501 14.19C14.6748 14.1454 14.7894 14.0765 14.8873 13.9872C14.9851 13.8979 15.0643 13.7901 15.1201 13.67L15.7401 12.27C16.2571 12.4549 16.7847 12.6085 17.3201 12.73C17.5868 12.79 17.8568 12.84 18.1301 12.88C18.3575 12.9288 18.5608 13.0553 18.705 13.2379C18.8492 13.4204 18.9253 13.6475 18.9201 13.88L18.9401 17Z" fill="#5DBC67"/>
</svg>
