<svg width="40" height="41" viewBox="0 0 40 41" fill="none" xmlns="http://www.w3.org/2000/svg">
<g clip-path="url(#clip0_191_15)">
<path fill-rule="evenodd" clip-rule="evenodd" d="M5 35.7128C5 37.7841 6.67875 39.4628 8.75 39.4628H31.25C33.3212 39.4628 35 37.7841 35 35.7128C35 32.7953 35 28.0253 35 25.2991C35 23.4866 33.7038 21.9341 31.9213 21.6103C29.2788 21.1291 24.7225 20.3003 22.145 19.8328C20.7263 19.5741 19.2737 19.5741 17.855 19.8328C15.2775 20.3003 10.7212 21.1291 8.07875 21.6103C6.29625 21.9341 5 23.4866 5 25.2991V35.7128ZM22.885 22.5078L24.7612 29.6416C25.0075 30.5778 24.6775 31.5716 23.92 32.1766C23.28 32.6866 22.2713 33.4916 21.5713 34.0516C20.6525 34.7841 19.3475 34.7841 18.4287 34.0516C17.7287 33.4916 16.72 32.6866 16.08 32.1766C15.3225 31.5716 14.9925 30.5778 15.2388 29.6416L17.115 22.5078L8.52625 24.0691C7.9325 24.1778 7.5 24.6953 7.5 25.2991V35.7128C7.5 36.4028 8.06 36.9628 8.75 36.9628C13.98 36.9628 26.02 36.9628 31.25 36.9628C31.94 36.9628 32.5 36.4028 32.5 35.7128C32.5 32.7953 32.5 28.0253 32.5 25.2991C32.5 24.6953 32.0675 24.1778 31.4738 24.0691L22.885 22.5078ZM20.2038 22.1416C20.0675 22.1378 19.9325 22.1378 19.7962 22.1416L17.6663 30.2441L19.9887 32.0966C19.995 32.1028 20.005 32.1028 20.0113 32.0966L22.3337 30.2441L20.2038 22.1416ZM20 1.96281C15.5163 1.96281 11.875 5.60406 11.875 10.0878C11.875 14.5716 15.5163 18.2128 20 18.2128C24.4837 18.2128 28.125 14.5716 28.125 10.0878C28.125 5.60406 24.4837 1.96281 20 1.96281ZM20 4.46281C23.105 4.46281 25.625 6.98281 25.625 10.0878C25.625 13.1928 23.105 15.7128 20 15.7128C16.895 15.7128 14.375 13.1928 14.375 10.0878C14.375 6.98281 16.895 4.46281 20 4.46281Z" fill="black"/>
</g>
<defs>
<clipPath id="clip0_191_15">
<rect width="40" height="40" fill="white" transform="translate(0 0.712814)"/>
</clipPath>
</defs>
</svg>
