<svg width="40" height="41" viewBox="0 0 40 41" fill="none" xmlns="http://www.w3.org/2000/svg">
<path d="M26.176 11.5878C26.176 11.9316 26.1525 12.2753 26.1096 12.6152C26.1291 12.4784 26.1486 12.3378 26.1643 12.2011C26.0705 12.8808 25.8908 13.5409 25.6291 14.1738C25.6799 14.0488 25.7346 13.9238 25.7854 13.7988C25.5236 14.4159 25.1877 14.9941 24.7775 15.5253C24.8596 15.4199 24.9416 15.3144 25.0236 15.2089C24.6174 15.7324 24.1447 16.205 23.6213 16.6113C23.7268 16.5292 23.8322 16.4472 23.9377 16.3652C23.4065 16.7714 22.8283 17.1113 22.2111 17.373C22.3361 17.3222 22.4611 17.2675 22.5861 17.2167C21.9533 17.4784 21.2932 17.6581 20.6135 17.7519C20.7502 17.7324 20.8908 17.7128 21.0275 17.6972C20.3439 17.787 19.6564 17.787 18.9729 17.6972C19.1096 17.7167 19.2502 17.7363 19.3869 17.7519C18.7072 17.6581 18.0471 17.4784 17.4143 17.2167C17.5393 17.2675 17.6643 17.3222 17.7893 17.373C17.1721 17.1113 16.5939 16.7753 16.0627 16.3652C16.1682 16.4472 16.2736 16.5292 16.3791 16.6113C15.8557 16.205 15.383 15.7324 14.9768 15.2089C15.0588 15.3144 15.1408 15.4199 15.2228 15.5253C14.8166 14.9941 14.4768 14.4159 14.215 13.7988C14.2658 13.9238 14.3205 14.0488 14.3713 14.1738C14.1096 13.5409 13.9299 12.8808 13.8361 12.2011C13.8557 12.3378 13.8752 12.4784 13.8908 12.6152C13.801 11.9316 13.801 11.2441 13.8908 10.5605C13.8713 10.6972 13.8518 10.8378 13.8361 10.9745C13.9299 10.2949 14.1096 9.6347 14.3713 9.00188C14.3205 9.12688 14.2658 9.25188 14.215 9.37688C14.4768 8.7597 14.8127 8.18157 15.2228 7.65032C15.1408 7.75579 15.0588 7.86126 14.9768 7.96673C15.383 7.44329 15.8557 6.97063 16.3791 6.56438C16.2736 6.64642 16.1682 6.72845 16.0627 6.81048C16.5939 6.40423 17.1721 6.06438 17.7893 5.80267C17.6643 5.85345 17.5393 5.90813 17.4143 5.95892C18.0471 5.6972 18.7072 5.51751 19.3869 5.42376C19.2502 5.44329 19.1096 5.46282 18.9729 5.47845C19.6564 5.3886 20.3439 5.3886 21.0275 5.47845C20.8908 5.45892 20.7502 5.43938 20.6135 5.42376C21.2932 5.51751 21.9533 5.6972 22.5861 5.95892C22.4611 5.90813 22.3361 5.85345 22.2111 5.80267C22.8283 6.06438 23.4065 6.40032 23.9377 6.81048C23.8322 6.72845 23.7268 6.64642 23.6213 6.56438C24.1447 6.97063 24.6174 7.44329 25.0236 7.96673C24.9416 7.86126 24.8596 7.75579 24.7775 7.65032C25.1838 8.18157 25.5236 8.7597 25.7854 9.37688C25.7346 9.25188 25.6799 9.12688 25.6291 9.00188C25.8908 9.6347 26.0705 10.2949 26.1643 10.9745C26.1447 10.8378 26.1252 10.6972 26.1096 10.5605C26.1525 10.9003 26.1721 11.2441 26.176 11.5878C26.1799 12.4042 26.8908 13.1894 27.7385 13.1503C28.5822 13.1113 29.3049 12.4628 29.301 11.5878C29.2932 9.71673 28.7307 7.80267 27.6291 6.27923C27.3322 5.86907 27.0158 5.46673 26.6643 5.10345C26.3088 4.73626 25.9182 4.41985 25.5119 4.11126C24.7736 3.54876 23.9494 3.1347 23.0744 2.81438C19.5471 1.52142 15.2932 2.67376 12.9064 5.58001C12.5783 5.97845 12.2658 6.39251 12.0002 6.83782C11.7346 7.27923 11.5275 7.74798 11.3361 8.22454C10.9768 9.10735 10.7932 10.0449 10.7189 10.9941C10.5744 12.8534 11.0588 14.7949 12.0275 16.3886C12.9611 17.9277 14.3713 19.248 16.0197 19.9941C16.5041 20.2128 17.0002 20.4159 17.5158 20.5605C18.0275 20.7011 18.5471 20.7792 19.0744 20.8417C20.0354 20.955 21.0158 20.8769 21.965 20.6855C25.5705 19.9511 28.59 16.8456 29.1486 13.2011C29.2307 12.6699 29.2932 12.1386 29.2932 11.5995C29.2971 10.7831 28.5705 9.99798 27.7307 10.037C26.8869 10.0644 26.176 10.7128 26.176 11.5878ZM31.3596 36.0136C30.594 36.0136 29.8283 36.0136 29.0627 36.0136C27.2385 36.0136 25.4182 36.0136 23.594 36.0136C21.3986 36.0136 19.2033 36.0136 17.0041 36.0136C15.1096 36.0136 13.215 36.0136 11.3166 36.0136C10.4299 36.0136 9.54316 36.0214 8.65644 36.0136C8.55878 36.0136 8.46112 36.0058 8.36737 35.9941C8.50409 36.0136 8.64472 36.0331 8.78144 36.0488C8.62519 36.0253 8.47675 35.9824 8.33222 35.9238C8.45722 35.9745 8.58222 36.0292 8.70722 36.08C8.55097 36.0136 8.40644 35.9277 8.26972 35.8222C8.37519 35.9042 8.48065 35.9863 8.58612 36.0683C8.46894 35.9706 8.35956 35.8652 8.26581 35.748C8.34784 35.8534 8.42987 35.9589 8.5119 36.0644C8.40644 35.9277 8.3244 35.7831 8.25409 35.6269C8.30487 35.7519 8.35956 35.8769 8.41034 36.0019C8.35175 35.8574 8.31269 35.705 8.28534 35.5527C8.30487 35.6894 8.3244 35.83 8.34003 35.9667C8.27753 35.4941 8.3205 34.9941 8.3205 34.5175C8.3205 33.9589 8.3205 33.4042 8.3205 32.8456C8.3205 32.4277 8.34394 32.0136 8.39862 31.5995C8.37909 31.7363 8.35956 31.8769 8.34394 32.0136C8.45331 31.2128 8.66425 30.4277 8.98065 29.6816C8.92987 29.8066 8.87519 29.9316 8.8244 30.0566C9.12909 29.3456 9.51972 28.6777 9.99237 28.0644C9.91034 28.1699 9.82831 28.2753 9.74628 28.3808C10.2189 27.7753 10.7619 27.2284 11.3713 26.7558C11.2658 26.8378 11.1603 26.9199 11.0549 27.0019C11.6682 26.5292 12.3361 26.1386 13.0471 25.8339C12.9221 25.8847 12.7971 25.9394 12.6721 25.9902C13.4182 25.6777 14.1994 25.4628 15.0041 25.3534C14.8674 25.373 14.7268 25.3925 14.59 25.4081C15.1682 25.3339 15.7424 25.33 16.3244 25.33C17.0393 25.33 17.7541 25.33 18.4689 25.33C20.1369 25.33 21.8049 25.33 23.4729 25.33C24.1174 25.33 24.758 25.3261 25.4025 25.4081C25.2658 25.3886 25.1252 25.3691 24.9885 25.3534C25.7893 25.4628 26.5744 25.6738 27.3205 25.9902C27.1955 25.9394 27.0705 25.8847 26.9455 25.8339C27.6565 26.1386 28.3244 26.5292 28.9377 27.0019C28.8322 26.9199 28.7268 26.8378 28.6213 26.7558C29.2268 27.2284 29.7736 27.7714 30.2463 28.3808C30.1643 28.2753 30.0822 28.1699 30.0002 28.0644C30.4729 28.6777 30.8635 29.3456 31.1682 30.0566C31.1174 29.9316 31.0627 29.8066 31.0119 29.6816C31.3244 30.4277 31.5393 31.2089 31.6486 32.0136C31.6291 31.8769 31.6096 31.7363 31.594 31.5995C31.6682 32.1894 31.6721 32.7753 31.6721 33.3691C31.6721 34.0136 31.6721 34.6581 31.6721 35.3027C31.6721 35.5253 31.6799 35.748 31.6525 35.9667C31.6721 35.83 31.6916 35.6894 31.7072 35.5527C31.6838 35.7089 31.6408 35.8574 31.5822 36.0019C31.633 35.8769 31.6877 35.7519 31.7385 35.6269C31.6721 35.7831 31.5861 35.9277 31.4807 36.0644C31.5627 35.9589 31.6447 35.8534 31.7268 35.748C31.6291 35.8652 31.5236 35.9745 31.4065 36.0683C31.5119 35.9863 31.6174 35.9042 31.7229 35.8222C31.5861 35.9277 31.4416 36.0097 31.2854 36.08C31.4104 36.0292 31.5354 35.9745 31.6604 35.9238C31.5158 35.9824 31.3635 36.0214 31.2111 36.0488C31.3479 36.0292 31.4885 36.0097 31.6252 35.9941C31.5393 36.0058 31.4494 36.0097 31.3596 36.0136C30.9572 36.0175 30.5432 36.1855 30.2541 36.4706C29.9846 36.7402 29.7775 37.1855 29.7971 37.5761C29.8361 38.412 30.4846 39.1503 31.3596 39.1386C32.8791 39.1152 34.2151 38.123 34.6604 36.6659C34.8361 36.0878 34.7971 35.4667 34.7971 34.873C34.7971 33.5136 34.8401 32.1659 34.6057 30.8183C34.2619 28.8456 33.2697 26.9902 31.9104 25.5331C30.551 24.0761 28.7229 23.0058 26.7893 22.5292C25.6799 22.2558 24.5627 22.2128 23.4299 22.2128C22.2658 22.2128 21.1057 22.2128 19.9416 22.2128C18.7932 22.2128 17.6486 22.2128 16.5002 22.2128C15.34 22.2128 14.1877 22.2675 13.0588 22.5683C11.1408 23.0761 9.33612 24.1581 8.00409 25.6269C6.66034 27.1074 5.68768 28.9667 5.37128 30.9511C5.16034 32.2831 5.20331 33.6191 5.20331 34.9628C5.20331 35.58 5.16815 36.2245 5.39081 36.8144C5.67987 37.5722 6.14081 38.1699 6.81659 38.6191C7.34393 38.9667 8.0119 39.1347 8.6369 39.1425C8.94159 39.1464 9.24628 39.1425 9.55097 39.1425C10.3322 39.1425 11.1096 39.1425 11.8908 39.1425C13.0002 39.1425 14.1057 39.1425 15.215 39.1425C16.5041 39.1425 17.7932 39.1425 19.0822 39.1425C20.4064 39.1425 21.7268 39.1425 23.051 39.1425C24.2619 39.1425 25.469 39.1425 26.6799 39.1425C27.6291 39.1425 28.5783 39.1425 29.5236 39.1425C30.0666 39.1425 30.6096 39.1425 31.1525 39.1425C31.2229 39.1425 31.2932 39.1425 31.3635 39.1425C32.1799 39.1425 32.9651 38.4238 32.926 37.58C32.8869 36.7284 32.2385 36.0136 31.3596 36.0136Z" fill="black"/>
</svg>
